<?xml version="1.0" encoding="UTF-8" standalone="no"?>
<svg
   id="_图层_1"
   version="1.1"
   viewBox="0 0 499.99998 500"
   sodipodi:docname="Canadian Solar EP Cube Logo_White.svg"
   width="500"
   height="500"
   inkscape:version="1.4.2 (f4327f4, 2025-05-13)"
   xmlns:inkscape="http://www.inkscape.org/namespaces/inkscape"
   xmlns:sodipodi="http://sodipodi.sourceforge.net/DTD/sodipodi-0.dtd"
   xmlns="http://www.w3.org/2000/svg"
   xmlns:svg="http://www.w3.org/2000/svg">
  <sodipodi:namedview
     id="namedview19"
     pagecolor="#ffffff"
     bordercolor="#000000"
     borderopacity="0.25"
     inkscape:showpageshadow="2"
     inkscape:pageopacity="0.0"
     inkscape:pagecheckerboard="true"
     inkscape:deskcolor="#d1d1d1"
     inkscape:zoom="1"
     inkscape:cx="34"
     inkscape:cy="25.5"
     inkscape:window-width="3440"
     inkscape:window-height="1369"
     inkscape:window-x="-8"
     inkscape:window-y="-8"
     inkscape:window-maximized="1"
     inkscape:current-layer="_图层_1" />
  <!-- Generator: Adobe Illustrator 29.0.0, SVG Export Plug-In . SVG Version: 2.1.0 Build 186)  -->
  <defs
     id="defs1">
    <style
       id="style1">
      .st0 {
        fill-rule: evenodd;
      }
    </style>
  </defs>
  <g
     id="g19"
     transform="matrix(19.02865,0,0,19.02865,2.4139784,32.655292)"
     style="display:inline">
    <path
       class="st0"
       d="m 3.2,22.1 h 9.2 C 11.8,21.1 11.2,20.2 10.3,19.5 10,19.3 9.7,19.2 9.3,19.2 H 0.2 c 0.5,1.1 1.1,2 2.1,2.6 0.3,0.2 0.4,0.3 0.9,0.3"
       id="path2"
       style="fill:#ffffff" />
    <path
       class="st0"
       d="m 16.4,13.1 c 2.6,-1.8 6.4,-1.3 9.6,1.2 l -1.3,1.2 C 22.4,14 20,13.7 17.9,15.3 c -1.8,1.3 -2,4.1 -1.3,6.8 h -1.7 c -1.5,-3.6 -1.1,-7.3 1.5,-9"
       id="path3"
       style="fill:#ffffff" />
    <path
       class="st0"
       d="m 4.8,14.6 7.6,3.9 c 0,-1.1 -0.3,-2.2 -0.7,-3.3 -0.1,-0.3 -0.3,-0.6 -0.7,-0.8 l -7.4,-4 c 0,1.2 0,2.6 0.4,3.6 0.2,0.3 0.3,0.4 0.8,0.6"
       id="path4"
       style="fill:#ffffff" />
    <path
       class="st0"
       d="m 8.3,7.6 5.4,5.8 c 0.3,-1 0.5,-2 0.5,-3.1 0,-1.1 -0.1,-0.6 -0.4,-0.9 L 8.5,3.6 C 8.1,4.6 7.7,5.8 7.8,6.8 7.8,7.1 8,7.3 8.3,7.6"
       id="path5"
       style="fill:#ffffff" />
    <path
       class="st0"
       d="m 22.7,4.1 -0.4,6.4 C 23.2,10.2 24,9.7 24.8,9.1 25,8.9 25.2,8.7 25.2,8.4 L 25.7,2 c -1,0.3 -2.1,0.7 -2.7,1.3 -0.3,0.2 -0.3,0.3 -0.3,0.8"
       id="path6"
       style="fill:#ffffff" />
    <path
       class="st0"
       d="m 15.4,3.7 2,7.3 C 18.2,10.3 18.8,9.5 19.3,8.6 19.4,8.4 19.5,8 19.4,7.7 L 17.5,0.4 c -0.9,0.7 -1.8,1.5 -2.2,2.4 v 0.9"
       id="path7"
       style="opacity:1;mix-blend-mode:normal;fill:#ffffff" />
  </g>
</svg>
